<mxfile host="Electron" modified="2024-01-08T11:22:23.794Z" agent="Mozilla/5.0 (Windows NT 10.0; Win64; x64) AppleWebKit/537.36 (KHTML, like Gecko) draw.io/22.1.16 Chrome/120.0.6099.109 Electron/28.1.0 Safari/537.36" etag="wWetljAS3UKdVe0Ozq7J" version="22.1.16" type="device">
  <diagram name="Page-1" id="bfe91b75-5d2c-26a0-9c1d-138518896778">
    <mxGraphModel dx="4063" dy="2560" grid="1" gridSize="10" guides="1" tooltips="1" connect="1" arrows="1" fold="1" page="1" pageScale="1" pageWidth="1100" pageHeight="850" background="none" math="0" shadow="0">
      <root>
        <mxCell id="0" />
        <mxCell id="1" parent="0" />
        <mxCell id="vupX-Ud-e8L9j40dywL5-45" value="" style="rounded=1;whiteSpace=wrap;html=1;fillColor=#d5e8d4;strokeColor=#82b366;" parent="1" vertex="1">
          <mxGeometry y="10" width="1860" height="640" as="geometry" />
        </mxCell>
        <mxCell id="b5o-QgIe4mimxShX3EWB-21" value="" style="rounded=1;whiteSpace=wrap;html=1;fillColor=#fad9d5;strokeColor=#ae4132;" parent="1" vertex="1">
          <mxGeometry x="1120" y="270" width="420" height="310" as="geometry" />
        </mxCell>
        <mxCell id="YK_ei5zXLfUswVGtYnYI-3" value="" style="rounded=0;whiteSpace=wrap;html=1;strokeColor=#36393d;align=center;verticalAlign=middle;fontFamily=Helvetica;fontSize=12;fillColor=#f9f7ed;" vertex="1" parent="1">
          <mxGeometry x="1132" y="285" width="388" height="180" as="geometry" />
        </mxCell>
        <mxCell id="b5o-QgIe4mimxShX3EWB-11" value="" style="rounded=1;whiteSpace=wrap;html=1;fillColor=#fad9d5;strokeColor=#ae4132;" parent="1" vertex="1">
          <mxGeometry x="910" y="20" width="200" height="600" as="geometry" />
        </mxCell>
        <mxCell id="b5o-QgIe4mimxShX3EWB-10" value="" style="rounded=1;whiteSpace=wrap;html=1;fillColor=#fad9d5;strokeColor=#ae4132;" parent="1" vertex="1">
          <mxGeometry x="10" y="10" width="890" height="630" as="geometry" />
        </mxCell>
        <mxCell id="ooFxtrRuCzl4Vi_TdL1N-124" value="" style="rounded=0;whiteSpace=wrap;html=1;strokeColor=#36393d;align=center;verticalAlign=middle;fontFamily=Helvetica;fontSize=12;fillColor=#f9f7ed;" parent="1" vertex="1">
          <mxGeometry x="500" y="30" width="320" height="180" as="geometry" />
        </mxCell>
        <mxCell id="ooFxtrRuCzl4Vi_TdL1N-116" value="" style="rounded=0;whiteSpace=wrap;html=1;strokeColor=#36393d;align=center;verticalAlign=middle;fontFamily=Helvetica;fontSize=12;fillColor=#f9f7ed;" parent="1" vertex="1">
          <mxGeometry x="30" y="410" width="770" height="190" as="geometry" />
        </mxCell>
        <mxCell id="ooFxtrRuCzl4Vi_TdL1N-118" value="&lt;div style=&quot;color: rgb(212, 212, 212); background-color: rgb(30, 30, 30); font-family: Consolas, &amp;quot;Courier New&amp;quot;, monospace; font-size: 17.6px; line-height: 23px;&quot;&gt;&lt;div style=&quot;line-height: 23px;&quot;&gt;&lt;div style=&quot;line-height: 23px;&quot;&gt;node标签:giteeInternal&lt;/div&gt;&lt;/div&gt;&lt;/div&gt;" style="text;html=1;strokeColor=none;fillColor=none;align=center;verticalAlign=middle;whiteSpace=wrap;rounded=0;fontSize=12;fontFamily=Helvetica;fontColor=default;" parent="1" vertex="1">
          <mxGeometry x="580" y="570" width="217.33" height="30" as="geometry" />
        </mxCell>
        <mxCell id="ooFxtrRuCzl4Vi_TdL1N-111" value="" style="rounded=0;whiteSpace=wrap;html=1;strokeColor=#36393d;align=center;verticalAlign=middle;fontFamily=Helvetica;fontSize=12;fillColor=#f9f7ed;" parent="1" vertex="1">
          <mxGeometry x="40" y="30" width="450" height="180" as="geometry" />
        </mxCell>
        <mxCell id="ooFxtrRuCzl4Vi_TdL1N-104" value="" style="rounded=0;whiteSpace=wrap;html=1;strokeColor=#36393d;align=center;verticalAlign=middle;fontFamily=Helvetica;fontSize=12;fillColor=#f9f7ed;" parent="1" vertex="1">
          <mxGeometry x="20" y="220" width="560" height="180" as="geometry" />
        </mxCell>
        <mxCell id="vupX-Ud-e8L9j40dywL5-43" value="" style="rounded=1;whiteSpace=wrap;html=1;fillColor=#d5e8d4;strokeColor=#82b366;" parent="1" vertex="1">
          <mxGeometry x="880" y="-189.5" width="607.51" height="190" as="geometry" />
        </mxCell>
        <mxCell id="vupX-Ud-e8L9j40dywL5-105" value="" style="rounded=1;whiteSpace=wrap;html=1;fillColor=#d5e8d4;strokeColor=#82b366;" parent="1" vertex="1">
          <mxGeometry x="-40" y="-780" width="920" height="790" as="geometry" />
        </mxCell>
        <mxCell id="ooFxtrRuCzl4Vi_TdL1N-41" value="&lt;span style=&quot;font-size: 14px;&quot;&gt;&lt;b&gt;&lt;br&gt;&lt;br&gt;&lt;br&gt;&lt;br&gt;&lt;br&gt;&lt;br&gt;&lt;br&gt;&lt;br&gt;&lt;br&gt;&lt;br&gt;&lt;br&gt;rsync&lt;/b&gt;&lt;/span&gt;" style="rounded=1;whiteSpace=wrap;html=1;fillColor=#fad9d5;strokeColor=#ae4132;" parent="1" vertex="1">
          <mxGeometry x="140" y="-660" width="50" height="660.5" as="geometry" />
        </mxCell>
        <mxCell id="ooFxtrRuCzl4Vi_TdL1N-18" value="" style="rounded=1;whiteSpace=wrap;html=1;fillColor=#fad7ac;strokeColor=#b46504;" parent="1" vertex="1">
          <mxGeometry x="210" y="-410" width="310" height="60" as="geometry" />
        </mxCell>
        <mxCell id="b5o-QgIe4mimxShX3EWB-28" value="&lt;span style=&quot;font-size: 14px;&quot;&gt;&lt;b&gt;外置nfs&lt;br&gt;主从&lt;br&gt;&lt;/b&gt;&lt;/span&gt;" style="rounded=1;whiteSpace=wrap;html=1;fillColor=#e1d5e7;strokeColor=#9673a6;" parent="1" vertex="1">
          <mxGeometry x="217.91999999999996" y="-400" width="70" height="40" as="geometry" />
        </mxCell>
        <mxCell id="vupX-Ud-e8L9j40dywL5-227" value="" style="rounded=1;whiteSpace=wrap;html=1;fillColor=#fff2cc;strokeColor=#d6b656;" parent="1" vertex="1">
          <mxGeometry x="325" y="660" width="320" height="230" as="geometry" />
        </mxCell>
        <mxCell id="vupX-Ud-e8L9j40dywL5-225" value="" style="rounded=1;whiteSpace=wrap;html=1;fillColor=#fff2cc;strokeColor=#d6b656;" parent="1" vertex="1">
          <mxGeometry y="660" width="320" height="230" as="geometry" />
        </mxCell>
        <mxCell id="vupX-Ud-e8L9j40dywL5-22" value="" style="whiteSpace=wrap;html=1;aspect=fixed;fillColor=#d5e8d4;strokeColor=#82b366;" parent="1" vertex="1">
          <mxGeometry x="710" y="690" width="140" height="140" as="geometry" />
        </mxCell>
        <mxCell id="vupX-Ud-e8L9j40dywL5-14" value="" style="rounded=1;whiteSpace=wrap;html=1;fillColor=#d5e8d4;strokeColor=#82b366;" parent="1" vertex="1">
          <mxGeometry x="168" y="725" width="150" height="95" as="geometry" />
        </mxCell>
        <mxCell id="vupX-Ud-e8L9j40dywL5-8" value="" style="whiteSpace=wrap;html=1;aspect=fixed;fillColor=#d5e8d4;strokeColor=#82b366;" parent="1" vertex="1">
          <mxGeometry x="500" y="690" width="140" height="140" as="geometry" />
        </mxCell>
        <mxCell id="vupX-Ud-e8L9j40dywL5-2" value="" style="sketch=0;shadow=0;dashed=0;html=1;labelPosition=center;verticalLabelPosition=bottom;verticalAlign=top;align=center;outlineConnect=0;shape=mxgraph.veeam.3d.vm_running;" parent="1" vertex="1">
          <mxGeometry x="590" y="780" width="50" height="40" as="geometry" />
        </mxCell>
        <mxCell id="vupX-Ud-e8L9j40dywL5-3" value="" style="sketch=0;shadow=0;dashed=0;html=1;labelPosition=center;verticalLabelPosition=bottom;verticalAlign=top;align=center;outlineConnect=0;shape=mxgraph.veeam.3d.vm_running;" parent="1" vertex="1">
          <mxGeometry x="590" y="730" width="50" height="40" as="geometry" />
        </mxCell>
        <mxCell id="vupX-Ud-e8L9j40dywL5-4" value="" style="sketch=0;shadow=0;dashed=0;html=1;labelPosition=center;verticalLabelPosition=bottom;verticalAlign=top;align=center;outlineConnect=0;shape=mxgraph.veeam.3d.vm_running;" parent="1" vertex="1">
          <mxGeometry x="510" y="730" width="50" height="40" as="geometry" />
        </mxCell>
        <mxCell id="vupX-Ud-e8L9j40dywL5-5" value="" style="sketch=0;shadow=0;dashed=0;html=1;labelPosition=center;verticalLabelPosition=bottom;verticalAlign=top;align=center;outlineConnect=0;shape=mxgraph.veeam.3d.vm_running;" parent="1" vertex="1">
          <mxGeometry x="510" y="780" width="50" height="40" as="geometry" />
        </mxCell>
        <mxCell id="vupX-Ud-e8L9j40dywL5-6" value="" style="sketch=0;shadow=0;dashed=0;html=1;labelPosition=center;verticalLabelPosition=bottom;verticalAlign=top;align=center;outlineConnect=0;shape=mxgraph.veeam.3d.vm_running;" parent="1" vertex="1">
          <mxGeometry x="901.51" y="-154.5" width="50" height="40" as="geometry" />
        </mxCell>
        <mxCell id="vupX-Ud-e8L9j40dywL5-7" value="" style="sketch=0;shadow=0;dashed=0;html=1;labelPosition=center;verticalLabelPosition=bottom;verticalAlign=top;align=center;outlineConnect=0;shape=mxgraph.veeam.3d.vm_running;" parent="1" vertex="1">
          <mxGeometry x="1296.11" y="-157" width="50" height="40" as="geometry" />
        </mxCell>
        <mxCell id="vupX-Ud-e8L9j40dywL5-11" value="" style="sketch=0;shadow=0;dashed=0;html=1;labelPosition=center;verticalLabelPosition=bottom;verticalAlign=top;align=center;outlineConnect=0;shape=mxgraph.veeam.3d.vm_running;" parent="1" vertex="1">
          <mxGeometry x="250" y="765" width="50" height="40" as="geometry" />
        </mxCell>
        <mxCell id="vupX-Ud-e8L9j40dywL5-12" value="" style="sketch=0;shadow=0;dashed=0;html=1;labelPosition=center;verticalLabelPosition=bottom;verticalAlign=top;align=center;outlineConnect=0;shape=mxgraph.veeam.3d.vm_running;" parent="1" vertex="1">
          <mxGeometry x="190" y="765" width="50" height="40" as="geometry" />
        </mxCell>
        <mxCell id="vupX-Ud-e8L9j40dywL5-15" value="" style="rounded=1;whiteSpace=wrap;html=1;fillColor=#d5e8d4;strokeColor=#82b366;" parent="1" vertex="1">
          <mxGeometry x="10" y="725" width="150" height="95" as="geometry" />
        </mxCell>
        <mxCell id="vupX-Ud-e8L9j40dywL5-16" value="" style="sketch=0;shadow=0;dashed=0;html=1;labelPosition=center;verticalLabelPosition=bottom;verticalAlign=top;align=center;outlineConnect=0;shape=mxgraph.veeam.3d.vm_running;" parent="1" vertex="1">
          <mxGeometry x="90" y="765" width="50" height="40" as="geometry" />
        </mxCell>
        <mxCell id="vupX-Ud-e8L9j40dywL5-17" value="" style="sketch=0;shadow=0;dashed=0;html=1;labelPosition=center;verticalLabelPosition=bottom;verticalAlign=top;align=center;outlineConnect=0;shape=mxgraph.veeam.3d.vm_running;" parent="1" vertex="1">
          <mxGeometry x="30" y="765" width="50" height="40" as="geometry" />
        </mxCell>
        <mxCell id="vupX-Ud-e8L9j40dywL5-18" value="&lt;b&gt;MySQL&lt;/b&gt;" style="text;html=1;strokeColor=none;fillColor=none;align=center;verticalAlign=middle;whiteSpace=wrap;rounded=0;" parent="1" vertex="1">
          <mxGeometry x="40" y="735" width="90" height="15" as="geometry" />
        </mxCell>
        <mxCell id="vupX-Ud-e8L9j40dywL5-20" value="&lt;b&gt;Minio&lt;/b&gt;" style="text;html=1;strokeColor=none;fillColor=none;align=center;verticalAlign=middle;whiteSpace=wrap;rounded=0;" parent="1" vertex="1">
          <mxGeometry x="530" y="700" width="90" height="15" as="geometry" />
        </mxCell>
        <mxCell id="vupX-Ud-e8L9j40dywL5-23" value="" style="sketch=0;shadow=0;dashed=0;html=1;labelPosition=center;verticalLabelPosition=bottom;verticalAlign=top;align=center;outlineConnect=0;shape=mxgraph.veeam.3d.vm_running;" parent="1" vertex="1">
          <mxGeometry x="800" y="780" width="50" height="40" as="geometry" />
        </mxCell>
        <mxCell id="vupX-Ud-e8L9j40dywL5-25" value="" style="sketch=0;shadow=0;dashed=0;html=1;labelPosition=center;verticalLabelPosition=bottom;verticalAlign=top;align=center;outlineConnect=0;shape=mxgraph.veeam.3d.vm_running;" parent="1" vertex="1">
          <mxGeometry x="765" y="730" width="50" height="40" as="geometry" />
        </mxCell>
        <mxCell id="vupX-Ud-e8L9j40dywL5-26" value="" style="sketch=0;shadow=0;dashed=0;html=1;labelPosition=center;verticalLabelPosition=bottom;verticalAlign=top;align=center;outlineConnect=0;shape=mxgraph.veeam.3d.vm_running;" parent="1" vertex="1">
          <mxGeometry x="720" y="780" width="50" height="40" as="geometry" />
        </mxCell>
        <mxCell id="vupX-Ud-e8L9j40dywL5-27" value="&lt;b&gt;PostgreSQL&lt;/b&gt;" style="text;html=1;strokeColor=none;fillColor=none;align=center;verticalAlign=middle;whiteSpace=wrap;rounded=0;" parent="1" vertex="1">
          <mxGeometry x="200" y="735" width="90" height="15" as="geometry" />
        </mxCell>
        <mxCell id="vupX-Ud-e8L9j40dywL5-29" value="" style="whiteSpace=wrap;html=1;aspect=fixed;fillColor=#d5e8d4;strokeColor=#82b366;" parent="1" vertex="1">
          <mxGeometry x="880" y="690" width="140" height="140" as="geometry" />
        </mxCell>
        <mxCell id="vupX-Ud-e8L9j40dywL5-30" value="&lt;b&gt;&lt;br&gt;Elasticsearch-cluster&lt;/b&gt;" style="text;html=1;strokeColor=none;fillColor=none;align=center;verticalAlign=middle;whiteSpace=wrap;rounded=0;" parent="1" vertex="1">
          <mxGeometry x="880" y="690" width="140" height="15" as="geometry" />
        </mxCell>
        <mxCell id="vupX-Ud-e8L9j40dywL5-31" value="" style="sketch=0;shadow=0;dashed=0;html=1;labelPosition=center;verticalLabelPosition=bottom;verticalAlign=top;align=center;outlineConnect=0;shape=mxgraph.veeam.3d.vm_running;" parent="1" vertex="1">
          <mxGeometry x="970" y="782.5" width="50" height="40" as="geometry" />
        </mxCell>
        <mxCell id="vupX-Ud-e8L9j40dywL5-32" value="" style="sketch=0;shadow=0;dashed=0;html=1;labelPosition=center;verticalLabelPosition=bottom;verticalAlign=top;align=center;outlineConnect=0;shape=mxgraph.veeam.3d.vm_running;" parent="1" vertex="1">
          <mxGeometry x="935" y="732.5" width="50" height="40" as="geometry" />
        </mxCell>
        <mxCell id="vupX-Ud-e8L9j40dywL5-33" value="" style="sketch=0;shadow=0;dashed=0;html=1;labelPosition=center;verticalLabelPosition=bottom;verticalAlign=top;align=center;outlineConnect=0;shape=mxgraph.veeam.3d.vm_running;" parent="1" vertex="1">
          <mxGeometry x="890" y="782.5" width="50" height="40" as="geometry" />
        </mxCell>
        <mxCell id="vupX-Ud-e8L9j40dywL5-35" value="&lt;b&gt;Kafka-cluster&lt;/b&gt;" style="text;html=1;strokeColor=none;fillColor=none;align=center;verticalAlign=middle;whiteSpace=wrap;rounded=0;" parent="1" vertex="1">
          <mxGeometry x="745" y="700" width="90" height="15" as="geometry" />
        </mxCell>
        <mxCell id="vupX-Ud-e8L9j40dywL5-37" value="" style="whiteSpace=wrap;html=1;aspect=fixed;fillColor=#d5e8d4;strokeColor=#82b366;" parent="1" vertex="1">
          <mxGeometry x="330" y="690" width="140" height="140" as="geometry" />
        </mxCell>
        <mxCell id="vupX-Ud-e8L9j40dywL5-38" value="" style="sketch=0;shadow=0;dashed=0;html=1;labelPosition=center;verticalLabelPosition=bottom;verticalAlign=top;align=center;outlineConnect=0;shape=mxgraph.veeam.3d.vm_running;" parent="1" vertex="1">
          <mxGeometry x="420" y="780" width="50" height="40" as="geometry" />
        </mxCell>
        <mxCell id="vupX-Ud-e8L9j40dywL5-39" value="" style="sketch=0;shadow=0;dashed=0;html=1;labelPosition=center;verticalLabelPosition=bottom;verticalAlign=top;align=center;outlineConnect=0;shape=mxgraph.veeam.3d.vm_running;" parent="1" vertex="1">
          <mxGeometry x="420" y="730" width="50" height="40" as="geometry" />
        </mxCell>
        <mxCell id="vupX-Ud-e8L9j40dywL5-40" value="" style="sketch=0;shadow=0;dashed=0;html=1;labelPosition=center;verticalLabelPosition=bottom;verticalAlign=top;align=center;outlineConnect=0;shape=mxgraph.veeam.3d.vm_running;" parent="1" vertex="1">
          <mxGeometry x="340" y="730" width="50" height="40" as="geometry" />
        </mxCell>
        <mxCell id="vupX-Ud-e8L9j40dywL5-41" value="" style="sketch=0;shadow=0;dashed=0;html=1;labelPosition=center;verticalLabelPosition=bottom;verticalAlign=top;align=center;outlineConnect=0;shape=mxgraph.veeam.3d.vm_running;" parent="1" vertex="1">
          <mxGeometry x="340" y="780" width="50" height="40" as="geometry" />
        </mxCell>
        <mxCell id="vupX-Ud-e8L9j40dywL5-42" value="&lt;b&gt;Gitaly-server&lt;/b&gt;" style="text;html=1;strokeColor=none;fillColor=none;align=center;verticalAlign=middle;whiteSpace=wrap;rounded=0;" parent="1" vertex="1">
          <mxGeometry x="360" y="700" width="90" height="15" as="geometry" />
        </mxCell>
        <mxCell id="vupX-Ud-e8L9j40dywL5-44" value="&lt;b&gt;&lt;font style=&quot;font-size: 18px;&quot;&gt;接入BLB&lt;/font&gt;&lt;/b&gt;" style="text;html=1;strokeColor=none;fillColor=none;align=center;verticalAlign=middle;whiteSpace=wrap;rounded=0;" parent="1" vertex="1">
          <mxGeometry x="1394.02" y="-169.5" width="90" height="15" as="geometry" />
        </mxCell>
        <mxCell id="vupX-Ud-e8L9j40dywL5-46" value="&lt;b&gt;&lt;font style=&quot;font-size: 18px;&quot;&gt;Kubernetes&lt;/font&gt;&lt;/b&gt;" style="text;html=1;strokeColor=none;fillColor=none;align=center;verticalAlign=middle;whiteSpace=wrap;rounded=0;" parent="1" vertex="1">
          <mxGeometry x="1710" y="30" width="90" height="15" as="geometry" />
        </mxCell>
        <mxCell id="vupX-Ud-e8L9j40dywL5-102" value="&lt;font style=&quot;font-size: 14px;&quot;&gt;haproxy&lt;/font&gt;" style="text;html=1;strokeColor=none;fillColor=none;align=center;verticalAlign=middle;whiteSpace=wrap;rounded=0;fontStyle=1" parent="1" vertex="1">
          <mxGeometry x="1294.02" y="-177" width="60" height="20" as="geometry" />
        </mxCell>
        <mxCell id="vupX-Ud-e8L9j40dywL5-103" value="&lt;font style=&quot;font-size: 14px;&quot;&gt;haproxy&lt;/font&gt;" style="text;html=1;strokeColor=none;fillColor=none;align=center;verticalAlign=middle;whiteSpace=wrap;rounded=0;fontStyle=1" parent="1" vertex="1">
          <mxGeometry x="896.51" y="-174.5" width="60" height="20" as="geometry" />
        </mxCell>
        <mxCell id="vupX-Ud-e8L9j40dywL5-106" value="" style="sketch=0;shadow=0;dashed=0;html=1;labelPosition=center;verticalLabelPosition=bottom;verticalAlign=top;align=center;outlineConnect=0;shape=mxgraph.veeam.3d.vm_running;" parent="1" vertex="1">
          <mxGeometry x="24.569999999999958" y="-710" width="50" height="40" as="geometry" />
        </mxCell>
        <mxCell id="vupX-Ud-e8L9j40dywL5-107" value="" style="sketch=0;shadow=0;dashed=0;html=1;labelPosition=center;verticalLabelPosition=bottom;verticalAlign=top;align=center;outlineConnect=0;shape=mxgraph.veeam.3d.vm_running;" parent="1" vertex="1">
          <mxGeometry x="637.3299999999999" y="-715" width="50" height="40" as="geometry" />
        </mxCell>
        <mxCell id="vupX-Ud-e8L9j40dywL5-108" value="&lt;b&gt;&lt;font style=&quot;font-size: 18px;&quot;&gt;跳板服务器&lt;/font&gt;&lt;/b&gt;" style="text;html=1;strokeColor=none;fillColor=none;align=center;verticalAlign=middle;whiteSpace=wrap;rounded=0;" parent="1" vertex="1">
          <mxGeometry x="690" y="-760" width="110" height="15" as="geometry" />
        </mxCell>
        <mxCell id="vupX-Ud-e8L9j40dywL5-109" value="&lt;font style=&quot;font-size: 14px;&quot;&gt;sre2&lt;/font&gt;" style="text;html=1;strokeColor=none;fillColor=none;align=center;verticalAlign=middle;whiteSpace=wrap;rounded=0;fontStyle=1" parent="1" vertex="1">
          <mxGeometry x="634" y="-745" width="60" height="20" as="geometry" />
        </mxCell>
        <mxCell id="vupX-Ud-e8L9j40dywL5-110" value="&lt;font style=&quot;font-size: 14px;&quot;&gt;sre1&lt;/font&gt;" style="text;html=1;strokeColor=none;fillColor=none;align=center;verticalAlign=middle;whiteSpace=wrap;rounded=0;fontStyle=1" parent="1" vertex="1">
          <mxGeometry x="14.570000000000043" y="-740" width="60" height="20" as="geometry" />
        </mxCell>
        <mxCell id="vupX-Ud-e8L9j40dywL5-148" value="" style="endArrow=classic;html=1;rounded=0;fillColor=#f8cecc;strokeColor=#b85450;" parent="1" edge="1">
          <mxGeometry width="50" height="50" relative="1" as="geometry">
            <mxPoint x="960" y="552" as="sourcePoint" />
            <mxPoint x="90" y="650" as="targetPoint" />
            <Array as="points">
              <mxPoint x="90" y="552" />
            </Array>
          </mxGeometry>
        </mxCell>
        <mxCell id="vupX-Ud-e8L9j40dywL5-149" value="" style="endArrow=classic;html=1;rounded=0;entryX=0.468;entryY=0.011;entryDx=0;entryDy=0;entryPerimeter=0;fillColor=#f8cecc;strokeColor=#b85450;" parent="1" target="vupX-Ud-e8L9j40dywL5-14" edge="1">
          <mxGeometry width="50" height="50" relative="1" as="geometry">
            <mxPoint x="240" y="550" as="sourcePoint" />
            <mxPoint x="280" y="570" as="targetPoint" />
          </mxGeometry>
        </mxCell>
        <mxCell id="vupX-Ud-e8L9j40dywL5-150" value="" style="endArrow=classic;html=1;rounded=0;entryX=0.5;entryY=0;entryDx=0;entryDy=0;fillColor=#f8cecc;strokeColor=#b85450;" parent="1" target="vupX-Ud-e8L9j40dywL5-37" edge="1">
          <mxGeometry width="50" height="50" relative="1" as="geometry">
            <mxPoint x="400" y="550" as="sourcePoint" />
            <mxPoint x="250" y="656" as="targetPoint" />
          </mxGeometry>
        </mxCell>
        <mxCell id="vupX-Ud-e8L9j40dywL5-151" value="" style="endArrow=classic;html=1;rounded=0;entryX=0.561;entryY=-0.029;entryDx=0;entryDy=0;entryPerimeter=0;fillColor=#f8cecc;strokeColor=#b85450;" parent="1" target="vupX-Ud-e8L9j40dywL5-29" edge="1">
          <mxGeometry width="50" height="50" relative="1" as="geometry">
            <mxPoint x="960" y="550" as="sourcePoint" />
            <mxPoint x="410" y="620" as="targetPoint" />
            <Array as="points">
              <mxPoint x="959" y="580" />
            </Array>
          </mxGeometry>
        </mxCell>
        <mxCell id="vupX-Ud-e8L9j40dywL5-156" value="" style="endArrow=classic;html=1;rounded=0;entryX=0.426;entryY=-0.006;entryDx=0;entryDy=0;entryPerimeter=0;fillColor=#f8cecc;strokeColor=#b85450;" parent="1" target="vupX-Ud-e8L9j40dywL5-8" edge="1">
          <mxGeometry width="50" height="50" relative="1" as="geometry">
            <mxPoint x="560" y="550" as="sourcePoint" />
            <mxPoint x="410" y="620" as="targetPoint" />
          </mxGeometry>
        </mxCell>
        <mxCell id="vupX-Ud-e8L9j40dywL5-157" value="" style="endArrow=classic;html=1;rounded=0;entryX=0.359;entryY=-0.021;entryDx=0;entryDy=0;entryPerimeter=0;fillColor=#f8cecc;strokeColor=#b85450;" parent="1" target="vupX-Ud-e8L9j40dywL5-22" edge="1">
          <mxGeometry width="50" height="50" relative="1" as="geometry">
            <mxPoint x="760" y="550" as="sourcePoint" />
            <mxPoint x="570" y="619" as="targetPoint" />
          </mxGeometry>
        </mxCell>
        <mxCell id="vupX-Ud-e8L9j40dywL5-224" value="&lt;div style=&quot;text-align: center;&quot;&gt;&lt;span style=&quot;font-size: 14px; background-color: rgb(255, 255, 255);&quot;&gt;&lt;b&gt;Database&lt;/b&gt;&lt;/span&gt;&lt;/div&gt;" style="text;whiteSpace=wrap;html=1;" parent="1" vertex="1">
          <mxGeometry x="225.83" y="852.5" width="84.17" height="27.5" as="geometry" />
        </mxCell>
        <mxCell id="vupX-Ud-e8L9j40dywL5-226" value="&lt;b&gt;数据库服务器&lt;/b&gt;" style="text;html=1;strokeColor=none;fillColor=none;align=center;verticalAlign=middle;whiteSpace=wrap;rounded=0;" parent="1" vertex="1">
          <mxGeometry x="10" y="865" width="90" height="15" as="geometry" />
        </mxCell>
        <mxCell id="vupX-Ud-e8L9j40dywL5-228" value="&lt;b&gt;存储服务器&lt;/b&gt;" style="text;html=1;strokeColor=none;fillColor=none;align=center;verticalAlign=middle;whiteSpace=wrap;rounded=0;" parent="1" vertex="1">
          <mxGeometry x="330" y="865" width="90" height="15" as="geometry" />
        </mxCell>
        <mxCell id="vupX-Ud-e8L9j40dywL5-230" value="&lt;div style=&quot;text-align: center;&quot;&gt;&lt;span style=&quot;font-size: 14px; background-color: rgb(255, 255, 255);&quot;&gt;&lt;b&gt;Storage&lt;/b&gt;&lt;/span&gt;&lt;/div&gt;" style="text;whiteSpace=wrap;html=1;" parent="1" vertex="1">
          <mxGeometry x="569.15" y="852.5" width="70.85" height="27.5" as="geometry" />
        </mxCell>
        <mxCell id="b5o-QgIe4mimxShX3EWB-12" value="" style="rounded=1;whiteSpace=wrap;html=1;fillColor=#fad9d5;strokeColor=#ae4132;" parent="1" vertex="1">
          <mxGeometry x="1140" y="75" width="302" height="185" as="geometry" />
        </mxCell>
        <mxCell id="b5o-QgIe4mimxShX3EWB-13" value="&lt;b&gt;&lt;font style=&quot;font-size: 14px;&quot;&gt;namespace：gitee-prod&lt;/font&gt;&lt;/b&gt;" style="text;html=1;strokeColor=none;fillColor=none;align=center;verticalAlign=middle;whiteSpace=wrap;rounded=0;" parent="1" vertex="1">
          <mxGeometry x="268" y="600" width="242" height="30" as="geometry" />
        </mxCell>
        <mxCell id="b5o-QgIe4mimxShX3EWB-14" value="&lt;b&gt;&lt;font style=&quot;font-size: 14px;&quot;&gt;namespace：&lt;/font&gt;rook-ceph&lt;/b&gt;" style="text;html=1;strokeColor=none;fillColor=none;align=center;verticalAlign=middle;whiteSpace=wrap;rounded=0;" parent="1" vertex="1">
          <mxGeometry x="890" y="580" width="242" height="30" as="geometry" />
        </mxCell>
        <mxCell id="b5o-QgIe4mimxShX3EWB-15" value="&lt;b&gt;&lt;font style=&quot;font-size: 14px;&quot;&gt;namespace：&lt;/font&gt;kubernetes-dashboard&lt;/b&gt;" style="text;html=1;strokeColor=none;fillColor=none;align=center;verticalAlign=middle;whiteSpace=wrap;rounded=0;" parent="1" vertex="1">
          <mxGeometry x="1170" y="220" width="242" height="30" as="geometry" />
        </mxCell>
        <mxCell id="b5o-QgIe4mimxShX3EWB-18" value="" style="rounded=1;whiteSpace=wrap;html=1;fillColor=#fad9d5;strokeColor=#ae4132;" parent="1" vertex="1">
          <mxGeometry x="1480" y="80" width="290" height="165" as="geometry" />
        </mxCell>
        <mxCell id="b5o-QgIe4mimxShX3EWB-19" value="&lt;font style=&quot;font-size: 14px;&quot;&gt;&lt;b&gt;&lt;font style=&quot;font-size: 14px;&quot;&gt;namespace：&lt;/font&gt;kube-system&lt;/b&gt;&lt;/font&gt;" style="text;html=1;strokeColor=none;fillColor=none;align=center;verticalAlign=middle;whiteSpace=wrap;rounded=0;" parent="1" vertex="1">
          <mxGeometry x="1498" y="210" width="242" height="30" as="geometry" />
        </mxCell>
        <mxCell id="b5o-QgIe4mimxShX3EWB-22" value="&lt;b&gt;&lt;font style=&quot;font-size: 14px;&quot;&gt;namespace：&lt;/font&gt;gitee-public&lt;/b&gt;" style="text;html=1;strokeColor=none;fillColor=none;align=center;verticalAlign=middle;whiteSpace=wrap;rounded=0;" parent="1" vertex="1">
          <mxGeometry x="1203.02" y="530" width="242" height="30" as="geometry" />
        </mxCell>
        <mxCell id="b5o-QgIe4mimxShX3EWB-23" value="" style="rounded=1;whiteSpace=wrap;html=1;fillColor=#fad9d5;strokeColor=#ae4132;" parent="1" vertex="1">
          <mxGeometry x="1553.02" y="270" width="266.98" height="280" as="geometry" />
        </mxCell>
        <mxCell id="b5o-QgIe4mimxShX3EWB-24" value="&lt;b&gt;&lt;font style=&quot;font-size: 14px;&quot;&gt;namespace：monitor&lt;/font&gt;&lt;/b&gt;" style="text;html=1;strokeColor=none;fillColor=none;align=center;verticalAlign=middle;whiteSpace=wrap;rounded=0;" parent="1" vertex="1">
          <mxGeometry x="1554" y="500" width="242" height="30" as="geometry" />
        </mxCell>
        <mxCell id="ooFxtrRuCzl4Vi_TdL1N-70" style="edgeStyle=orthogonalEdgeStyle;rounded=0;orthogonalLoop=1;jettySize=auto;html=1;entryX=0;entryY=0.5;entryDx=0;entryDy=0;dashed=1;dashPattern=8 8;fillColor=#008a00;strokeColor=#005700;startArrow=classic;startFill=1;endArrow=none;endFill=0;" parent="1" source="b5o-QgIe4mimxShX3EWB-27" target="b5o-QgIe4mimxShX3EWB-39" edge="1">
          <mxGeometry relative="1" as="geometry" />
        </mxCell>
        <mxCell id="b5o-QgIe4mimxShX3EWB-27" value="&lt;b&gt;&lt;font style=&quot;font-size: 14px;&quot;&gt;ansible&lt;/font&gt;&lt;/b&gt;" style="rounded=1;whiteSpace=wrap;html=1;fillColor=#fad9d5;strokeColor=#ae4132;" parent="1" vertex="1">
          <mxGeometry y="-450" width="140" height="40" as="geometry" />
        </mxCell>
        <mxCell id="ooFxtrRuCzl4Vi_TdL1N-74" style="edgeStyle=orthogonalEdgeStyle;rounded=0;orthogonalLoop=1;jettySize=auto;html=1;entryX=0;entryY=0.5;entryDx=0;entryDy=0;dashed=1;dashPattern=8 8;fillColor=#008a00;strokeColor=#005700;endArrow=none;endFill=0;startArrow=classic;startFill=1;" parent="1" source="b5o-QgIe4mimxShX3EWB-29" target="b5o-QgIe4mimxShX3EWB-41" edge="1">
          <mxGeometry relative="1" as="geometry" />
        </mxCell>
        <mxCell id="b5o-QgIe4mimxShX3EWB-29" value="&lt;b&gt;&lt;font style=&quot;font-size: 14px;&quot;&gt;nginx-pro&lt;/font&gt;&lt;/b&gt;" style="rounded=1;whiteSpace=wrap;html=1;fillColor=#fad9d5;strokeColor=#ae4132;" parent="1" vertex="1">
          <mxGeometry x="-2" y="-350" width="140" height="40" as="geometry" />
        </mxCell>
        <mxCell id="ooFxtrRuCzl4Vi_TdL1N-76" style="edgeStyle=orthogonalEdgeStyle;rounded=0;orthogonalLoop=1;jettySize=auto;html=1;entryX=0;entryY=0.5;entryDx=0;entryDy=0;dashed=1;dashPattern=8 8;fillColor=#008a00;strokeColor=#005700;startArrow=classic;startFill=1;endArrow=none;endFill=0;" parent="1" source="b5o-QgIe4mimxShX3EWB-30" target="b5o-QgIe4mimxShX3EWB-49" edge="1">
          <mxGeometry relative="1" as="geometry" />
        </mxCell>
        <mxCell id="b5o-QgIe4mimxShX3EWB-30" value="&lt;b&gt;&lt;font style=&quot;font-size: 14px;&quot;&gt;jenkins&lt;/font&gt;&lt;/b&gt;" style="rounded=1;whiteSpace=wrap;html=1;fillColor=#fad9d5;strokeColor=#ae4132;" parent="1" vertex="1">
          <mxGeometry x="-2" y="-300" width="140" height="40" as="geometry" />
        </mxCell>
        <mxCell id="ooFxtrRuCzl4Vi_TdL1N-79" style="edgeStyle=orthogonalEdgeStyle;rounded=0;orthogonalLoop=1;jettySize=auto;html=1;dashed=1;dashPattern=8 8;fillColor=#008a00;strokeColor=#005700;endArrow=none;endFill=0;startArrow=classic;startFill=1;" parent="1" source="b5o-QgIe4mimxShX3EWB-37" target="ooFxtrRuCzl4Vi_TdL1N-3" edge="1">
          <mxGeometry relative="1" as="geometry" />
        </mxCell>
        <mxCell id="b5o-QgIe4mimxShX3EWB-37" value="&lt;b&gt;&lt;font style=&quot;font-size: 14px;&quot;&gt;redis-cratos&lt;/font&gt;&lt;/b&gt;" style="rounded=1;whiteSpace=wrap;html=1;fillColor=#fad9d5;strokeColor=#ae4132;" parent="1" vertex="1">
          <mxGeometry y="-200" width="140" height="40" as="geometry" />
        </mxCell>
        <mxCell id="ooFxtrRuCzl4Vi_TdL1N-101" style="edgeStyle=orthogonalEdgeStyle;rounded=0;orthogonalLoop=1;jettySize=auto;html=1;entryX=0;entryY=0.5;entryDx=0;entryDy=0;dashed=1;dashPattern=8 8;fillColor=#008a00;strokeColor=#005700;endArrow=none;endFill=0;startArrow=classic;startFill=1;" parent="1" source="b5o-QgIe4mimxShX3EWB-38" target="b5o-QgIe4mimxShX3EWB-44" edge="1">
          <mxGeometry relative="1" as="geometry" />
        </mxCell>
        <mxCell id="b5o-QgIe4mimxShX3EWB-38" value="&lt;b&gt;&lt;font style=&quot;font-size: 14px;&quot;&gt;coredns&lt;/font&gt;&lt;/b&gt;" style="rounded=1;whiteSpace=wrap;html=1;fillColor=#fad9d5;strokeColor=#ae4132;" parent="1" vertex="1">
          <mxGeometry x="-2" y="-500" width="140" height="40" as="geometry" />
        </mxCell>
        <mxCell id="b5o-QgIe4mimxShX3EWB-39" value="&lt;b&gt;&lt;font style=&quot;font-size: 14px;&quot;&gt;ansible&lt;/font&gt;&lt;/b&gt;" style="rounded=1;whiteSpace=wrap;html=1;fillColor=#fad9d5;strokeColor=#ae4132;" parent="1" vertex="1">
          <mxGeometry x="594" y="-450" width="140" height="40" as="geometry" />
        </mxCell>
        <mxCell id="b5o-QgIe4mimxShX3EWB-40" value="&lt;b&gt;&lt;font style=&quot;font-size: 14px;&quot;&gt;harbor&lt;/font&gt;&lt;/b&gt;" style="rounded=1;whiteSpace=wrap;html=1;fillColor=#fad9d5;strokeColor=#ae4132;" parent="1" vertex="1">
          <mxGeometry x="592" y="-400" width="140" height="40" as="geometry" />
        </mxCell>
        <mxCell id="b5o-QgIe4mimxShX3EWB-41" value="&lt;b&gt;&lt;font style=&quot;font-size: 14px;&quot;&gt;nginx-pro&lt;/font&gt;&lt;/b&gt;" style="rounded=1;whiteSpace=wrap;html=1;fillColor=#fad9d5;strokeColor=#ae4132;" parent="1" vertex="1">
          <mxGeometry x="590" y="-350" width="140" height="40" as="geometry" />
        </mxCell>
        <mxCell id="b5o-QgIe4mimxShX3EWB-42" value="&lt;b style=&quot;border-color: var(--border-color);&quot;&gt;&lt;font style=&quot;border-color: var(--border-color); font-size: 14px;&quot;&gt;haproxy&lt;/font&gt;&lt;/b&gt;" style="rounded=1;whiteSpace=wrap;html=1;fillColor=#fad9d5;strokeColor=#ae4132;" parent="1" vertex="1">
          <mxGeometry x="901.51" y="-97" width="135" height="40" as="geometry" />
        </mxCell>
        <mxCell id="b5o-QgIe4mimxShX3EWB-44" value="&lt;b&gt;&lt;font style=&quot;font-size: 14px;&quot;&gt;coredns&lt;/font&gt;&lt;/b&gt;" style="rounded=1;whiteSpace=wrap;html=1;fillColor=#fad9d5;strokeColor=#ae4132;" parent="1" vertex="1">
          <mxGeometry x="590.5699999999999" y="-500" width="140" height="40" as="geometry" />
        </mxCell>
        <mxCell id="b5o-QgIe4mimxShX3EWB-49" value="&lt;b&gt;&lt;font style=&quot;font-size: 14px;&quot;&gt;jenkins&lt;/font&gt;&lt;/b&gt;" style="rounded=1;whiteSpace=wrap;html=1;fillColor=#fad9d5;strokeColor=#ae4132;" parent="1" vertex="1">
          <mxGeometry x="591.9999999999999" y="-300" width="140" height="40" as="geometry" />
        </mxCell>
        <mxCell id="b5o-QgIe4mimxShX3EWB-51" value="&lt;b&gt;&lt;font style=&quot;font-size: 14px;&quot;&gt;jenkins-agent&lt;/font&gt;&lt;/b&gt;" style="rounded=1;whiteSpace=wrap;html=1;fillColor=#fad9d5;strokeColor=#ae4132;" parent="1" vertex="1">
          <mxGeometry x="589.9999999999999" y="-250" width="140" height="40" as="geometry" />
        </mxCell>
        <mxCell id="b5o-QgIe4mimxShX3EWB-52" value="&lt;font style=&quot;font-size: 14px;&quot;&gt;&lt;b&gt;haproxy&lt;/b&gt;&lt;/font&gt;" style="rounded=1;whiteSpace=wrap;html=1;fillColor=#fad9d5;strokeColor=#ae4132;" parent="1" vertex="1">
          <mxGeometry x="1240" y="-97" width="140" height="40" as="geometry" />
        </mxCell>
        <mxCell id="b5o-QgIe4mimxShX3EWB-53" value="&lt;font style=&quot;font-size: 14px;&quot;&gt;&lt;b&gt;varnish&amp;nbsp;&lt;/b&gt;&lt;/font&gt;" style="rounded=1;whiteSpace=wrap;html=1;fillColor=#fad9d5;strokeColor=#ae4132;" parent="1" vertex="1">
          <mxGeometry x="1243.02" y="-47" width="140" height="40" as="geometry" />
        </mxCell>
        <mxCell id="ooFxtrRuCzl4Vi_TdL1N-1" value="&lt;font style=&quot;font-size: 14px;&quot;&gt;&lt;b&gt;varnish&amp;nbsp;&lt;/b&gt;&lt;/font&gt;" style="rounded=1;whiteSpace=wrap;html=1;fillColor=#fad9d5;strokeColor=#ae4132;" parent="1" vertex="1">
          <mxGeometry x="901.51" y="-47" width="133.33" height="40" as="geometry" />
        </mxCell>
        <mxCell id="ooFxtrRuCzl4Vi_TdL1N-81" style="edgeStyle=orthogonalEdgeStyle;rounded=0;orthogonalLoop=1;jettySize=auto;html=1;entryX=0;entryY=0.5;entryDx=0;entryDy=0;dashed=1;dashPattern=8 8;fillColor=#008a00;strokeColor=#005700;startArrow=classic;startFill=1;endArrow=none;endFill=0;" parent="1" source="ooFxtrRuCzl4Vi_TdL1N-2" target="b5o-QgIe4mimxShX3EWB-51" edge="1">
          <mxGeometry relative="1" as="geometry" />
        </mxCell>
        <mxCell id="ooFxtrRuCzl4Vi_TdL1N-2" value="&lt;b&gt;&lt;font style=&quot;font-size: 14px;&quot;&gt;jenkins-agent&lt;/font&gt;&lt;/b&gt;" style="rounded=1;whiteSpace=wrap;html=1;fillColor=#fad9d5;strokeColor=#ae4132;" parent="1" vertex="1">
          <mxGeometry x="-2" y="-250" width="140" height="40" as="geometry" />
        </mxCell>
        <mxCell id="ooFxtrRuCzl4Vi_TdL1N-3" value="&lt;b&gt;&lt;font style=&quot;font-size: 14px;&quot;&gt;redis-cratos&lt;/font&gt;&lt;/b&gt;" style="rounded=1;whiteSpace=wrap;html=1;fillColor=#fad9d5;strokeColor=#ae4132;" parent="1" vertex="1">
          <mxGeometry x="590" y="-200" width="140" height="40" as="geometry" />
        </mxCell>
        <mxCell id="ooFxtrRuCzl4Vi_TdL1N-4" value="&lt;b&gt;&lt;font style=&quot;font-size: 14px;&quot;&gt;redis-cratos&lt;/font&gt;&lt;/b&gt;" style="rounded=1;whiteSpace=wrap;html=1;fillColor=#fad9d5;strokeColor=#ae4132;" parent="1" vertex="1">
          <mxGeometry x="590" y="-145" width="140" height="40" as="geometry" />
        </mxCell>
        <mxCell id="ooFxtrRuCzl4Vi_TdL1N-80" style="edgeStyle=orthogonalEdgeStyle;rounded=0;orthogonalLoop=1;jettySize=auto;html=1;dashed=1;dashPattern=8 8;fillColor=#008a00;strokeColor=#005700;startArrow=classic;startFill=1;endArrow=none;endFill=0;" parent="1" source="ooFxtrRuCzl4Vi_TdL1N-5" target="ooFxtrRuCzl4Vi_TdL1N-4" edge="1">
          <mxGeometry relative="1" as="geometry" />
        </mxCell>
        <mxCell id="ooFxtrRuCzl4Vi_TdL1N-5" value="&lt;b&gt;&lt;font style=&quot;font-size: 14px;&quot;&gt;redis-cratos&lt;/font&gt;&lt;/b&gt;" style="rounded=1;whiteSpace=wrap;html=1;fillColor=#fad9d5;strokeColor=#ae4132;" parent="1" vertex="1">
          <mxGeometry x="-2" y="-145" width="140" height="40" as="geometry" />
        </mxCell>
        <mxCell id="ooFxtrRuCzl4Vi_TdL1N-88" style="edgeStyle=orthogonalEdgeStyle;rounded=0;orthogonalLoop=1;jettySize=auto;html=1;entryX=0;entryY=0.5;entryDx=0;entryDy=0;dashed=1;dashPattern=8 8;fillColor=#008a00;strokeColor=#005700;startArrow=classic;startFill=1;endArrow=none;endFill=0;" parent="1" source="ooFxtrRuCzl4Vi_TdL1N-6" target="ooFxtrRuCzl4Vi_TdL1N-7" edge="1">
          <mxGeometry relative="1" as="geometry" />
        </mxCell>
        <mxCell id="ooFxtrRuCzl4Vi_TdL1N-6" value="&lt;span style=&quot;font-size: 14px;&quot;&gt;&lt;b&gt;nfs&lt;/b&gt;&lt;/span&gt;" style="rounded=1;whiteSpace=wrap;html=1;fillColor=#fad9d5;strokeColor=#ae4132;" parent="1" vertex="1">
          <mxGeometry y="-40" width="140" height="40" as="geometry" />
        </mxCell>
        <mxCell id="ooFxtrRuCzl4Vi_TdL1N-7" value="&lt;span style=&quot;font-size: 14px;&quot;&gt;&lt;b&gt;nfs&lt;/b&gt;&lt;/span&gt;" style="rounded=1;whiteSpace=wrap;html=1;fillColor=#fad9d5;strokeColor=#ae4132;" parent="1" vertex="1">
          <mxGeometry x="590" y="-40" width="140" height="40" as="geometry" />
        </mxCell>
        <mxCell id="ooFxtrRuCzl4Vi_TdL1N-8" value="&lt;b&gt;&lt;font style=&quot;font-size: 14px;&quot;&gt;redis-public&lt;/font&gt;&lt;/b&gt;" style="rounded=1;whiteSpace=wrap;html=1;fillColor=#fad9d5;strokeColor=#ae4132;" parent="1" vertex="1">
          <mxGeometry x="590" y="-97.5" width="140" height="40" as="geometry" />
        </mxCell>
        <mxCell id="ooFxtrRuCzl4Vi_TdL1N-87" style="edgeStyle=orthogonalEdgeStyle;rounded=0;orthogonalLoop=1;jettySize=auto;html=1;entryX=0;entryY=0.5;entryDx=0;entryDy=0;fillColor=#008a00;strokeColor=#005700;dashed=1;dashPattern=8 8;startArrow=classic;startFill=1;endArrow=none;endFill=0;" parent="1" source="ooFxtrRuCzl4Vi_TdL1N-9" target="ooFxtrRuCzl4Vi_TdL1N-8" edge="1">
          <mxGeometry relative="1" as="geometry" />
        </mxCell>
        <mxCell id="ooFxtrRuCzl4Vi_TdL1N-9" value="&lt;b&gt;&lt;font style=&quot;font-size: 14px;&quot;&gt;redis-public&lt;/font&gt;&lt;/b&gt;" style="rounded=1;whiteSpace=wrap;html=1;fillColor=#fad9d5;strokeColor=#ae4132;" parent="1" vertex="1">
          <mxGeometry x="-2" y="-97.5" width="140" height="40" as="geometry" />
        </mxCell>
        <mxCell id="ooFxtrRuCzl4Vi_TdL1N-10" value="&lt;b&gt;&lt;font style=&quot;font-size: 14px;&quot;&gt;confcenter&lt;/font&gt;&lt;/b&gt;" style="rounded=1;whiteSpace=wrap;html=1;fillColor=#fad9d5;strokeColor=#ae4132;" parent="1" vertex="1">
          <mxGeometry x="-2" y="-560" width="140" height="40" as="geometry" />
        </mxCell>
        <mxCell id="ooFxtrRuCzl4Vi_TdL1N-12" value="&lt;b&gt;&lt;font style=&quot;font-size: 14px;&quot;&gt;confcenter&lt;/font&gt;&lt;/b&gt;" style="rounded=1;whiteSpace=wrap;html=1;fillColor=#fad9d5;strokeColor=#ae4132;" parent="1" vertex="1">
          <mxGeometry x="590" y="-560" width="140" height="40" as="geometry" />
        </mxCell>
        <mxCell id="ooFxtrRuCzl4Vi_TdL1N-68" style="edgeStyle=orthogonalEdgeStyle;rounded=0;orthogonalLoop=1;jettySize=auto;html=1;dashed=1;dashPattern=8 8;fillColor=#008a00;strokeColor=#005700;endArrow=none;endFill=0;startArrow=classic;startFill=1;" parent="1" source="ooFxtrRuCzl4Vi_TdL1N-13" target="b5o-QgIe4mimxShX3EWB-40" edge="1">
          <mxGeometry relative="1" as="geometry" />
        </mxCell>
        <mxCell id="ooFxtrRuCzl4Vi_TdL1N-13" value="&lt;b&gt;&lt;font style=&quot;font-size: 14px;&quot;&gt;harbor&lt;/font&gt;&lt;/b&gt;" style="rounded=1;whiteSpace=wrap;html=1;fillColor=#fad9d5;strokeColor=#ae4132;" parent="1" vertex="1">
          <mxGeometry x="-2" y="-400" width="140" height="40" as="geometry" />
        </mxCell>
        <mxCell id="ooFxtrRuCzl4Vi_TdL1N-14" value="&lt;span style=&quot;font-size: 14px;&quot;&gt;&lt;b&gt;外置redis&lt;br&gt;主从&lt;br&gt;&lt;/b&gt;&lt;/span&gt;" style="rounded=1;whiteSpace=wrap;html=1;fillColor=#e1d5e7;strokeColor=#9673a6;" parent="1" vertex="1">
          <mxGeometry x="320.91999999999996" y="-400" width="70" height="40" as="geometry" />
        </mxCell>
        <mxCell id="ooFxtrRuCzl4Vi_TdL1N-16" value="&lt;span style=&quot;font-size: 14px;&quot;&gt;&lt;b&gt;外置Postgres&lt;br&gt;主从&lt;br&gt;&lt;/b&gt;&lt;/span&gt;" style="rounded=1;whiteSpace=wrap;html=1;fillColor=#e1d5e7;strokeColor=#9673a6;" parent="1" vertex="1">
          <mxGeometry x="411.91999999999996" y="-400" width="100" height="40" as="geometry" />
        </mxCell>
        <mxCell id="ooFxtrRuCzl4Vi_TdL1N-30" value="&lt;b&gt;&lt;font style=&quot;font-size: 14px;&quot;&gt;confcenter&lt;/font&gt;&lt;/b&gt;" style="rounded=1;whiteSpace=wrap;html=1;fillColor=#fad9d5;strokeColor=#ae4132;" parent="1" vertex="1">
          <mxGeometry x="-2" y="-560" width="140" height="40" as="geometry" />
        </mxCell>
        <mxCell id="ooFxtrRuCzl4Vi_TdL1N-43" style="edgeStyle=orthogonalEdgeStyle;rounded=0;orthogonalLoop=1;jettySize=auto;html=1;dashed=1;dashPattern=8 8;fillColor=#008a00;strokeColor=#005700;startArrow=classic;startFill=1;endArrow=none;endFill=0;" parent="1" source="ooFxtrRuCzl4Vi_TdL1N-31" target="ooFxtrRuCzl4Vi_TdL1N-40" edge="1">
          <mxGeometry relative="1" as="geometry" />
        </mxCell>
        <mxCell id="ooFxtrRuCzl4Vi_TdL1N-31" value="&lt;b&gt;&lt;font style=&quot;font-size: 14px;&quot;&gt;elasticsearch-gitee&lt;/font&gt;&lt;/b&gt;" style="rounded=1;whiteSpace=wrap;html=1;fillColor=#fad9d5;strokeColor=#ae4132;" parent="1" vertex="1">
          <mxGeometry x="-2" y="-660" width="140" height="40" as="geometry" />
        </mxCell>
        <mxCell id="ooFxtrRuCzl4Vi_TdL1N-32" value="&lt;b&gt;&lt;font style=&quot;font-size: 14px;&quot;&gt;fileserver-docker&lt;/font&gt;&lt;/b&gt;" style="rounded=1;whiteSpace=wrap;html=1;fillColor=#fad9d5;strokeColor=#ae4132;" parent="1" vertex="1">
          <mxGeometry x="590" y="-610" width="140" height="40" as="geometry" />
        </mxCell>
        <mxCell id="ooFxtrRuCzl4Vi_TdL1N-39" value="&lt;b&gt;&lt;font style=&quot;font-size: 14px;&quot;&gt;fileserver-docker&lt;/font&gt;&lt;/b&gt;" style="rounded=1;whiteSpace=wrap;html=1;fillColor=#fad9d5;strokeColor=#ae4132;" parent="1" vertex="1">
          <mxGeometry x="-2" y="-610" width="140" height="40" as="geometry" />
        </mxCell>
        <mxCell id="ooFxtrRuCzl4Vi_TdL1N-40" value="&lt;b style=&quot;font-size: 14px;&quot;&gt;elasticsearch-gitee&lt;/b&gt;" style="rounded=1;whiteSpace=wrap;html=1;fillColor=#fad9d5;strokeColor=#ae4132;" parent="1" vertex="1">
          <mxGeometry x="590.5699999999999" y="-660" width="140" height="40" as="geometry" />
        </mxCell>
        <mxCell id="ooFxtrRuCzl4Vi_TdL1N-44" style="edgeStyle=orthogonalEdgeStyle;rounded=0;orthogonalLoop=1;jettySize=auto;html=1;dashed=1;dashPattern=8 8;fillColor=#008a00;strokeColor=#005700;entryX=0;entryY=0.5;entryDx=0;entryDy=0;startArrow=classic;startFill=1;endArrow=none;endFill=0;" parent="1" target="ooFxtrRuCzl4Vi_TdL1N-32" edge="1">
          <mxGeometry relative="1" as="geometry">
            <mxPoint x="138" y="-590" as="sourcePoint" />
            <mxPoint x="365" y="-590" as="targetPoint" />
          </mxGeometry>
        </mxCell>
        <mxCell id="ooFxtrRuCzl4Vi_TdL1N-45" style="edgeStyle=orthogonalEdgeStyle;rounded=0;orthogonalLoop=1;jettySize=auto;html=1;dashed=1;dashPattern=8 8;fillColor=#008a00;strokeColor=#005700;entryX=0;entryY=0.5;entryDx=0;entryDy=0;endArrow=none;endFill=0;startArrow=classic;startFill=1;" parent="1" target="ooFxtrRuCzl4Vi_TdL1N-12" edge="1">
          <mxGeometry relative="1" as="geometry">
            <mxPoint x="137" y="-540.59" as="sourcePoint" />
            <mxPoint x="364" y="-540.59" as="targetPoint" />
          </mxGeometry>
        </mxCell>
        <mxCell id="ooFxtrRuCzl4Vi_TdL1N-86" style="edgeStyle=orthogonalEdgeStyle;rounded=0;orthogonalLoop=1;jettySize=auto;html=1;entryX=0;entryY=0.5;entryDx=0;entryDy=0;dashed=1;dashPattern=8 8;fillColor=#008a00;strokeColor=#005700;endArrow=none;endFill=0;startArrow=classic;startFill=1;" parent="1" source="ooFxtrRuCzl4Vi_TdL1N-82" target="ooFxtrRuCzl4Vi_TdL1N-85" edge="1">
          <mxGeometry relative="1" as="geometry" />
        </mxCell>
        <mxCell id="ooFxtrRuCzl4Vi_TdL1N-82" value="&lt;b style=&quot;&quot;&gt;&lt;font style=&quot;font-size: 16px;&quot;&gt;keepalived&lt;/font&gt;&lt;/b&gt;" style="rounded=1;whiteSpace=wrap;html=1;fillColor=#fad9d5;strokeColor=#ae4132;" parent="1" vertex="1">
          <mxGeometry x="138" y="-710" width="92.08" height="40" as="geometry" />
        </mxCell>
        <mxCell id="ooFxtrRuCzl4Vi_TdL1N-85" value="&lt;b style=&quot;&quot;&gt;&lt;font style=&quot;font-size: 16px;&quot;&gt;keepalived&lt;/font&gt;&lt;/b&gt;" style="rounded=1;whiteSpace=wrap;html=1;fillColor=#fad9d5;strokeColor=#ae4132;" parent="1" vertex="1">
          <mxGeometry x="520" y="-710" width="92.08" height="40" as="geometry" />
        </mxCell>
        <mxCell id="ooFxtrRuCzl4Vi_TdL1N-102" value="&lt;span style=&quot;&quot;&gt;Deployment：assets&lt;br&gt;服务：nginx&lt;br&gt;服务端口：80:31080443:31443&lt;br&gt;监控端口：外部nginx-export-fn&lt;br&gt;&lt;/span&gt;" style="rounded=1;whiteSpace=wrap;html=1;fillColor=#ffff88;strokeColor=#36393d;" parent="1" vertex="1">
          <mxGeometry x="56.16" y="45" width="183.84" height="65" as="geometry" />
        </mxCell>
        <mxCell id="ooFxtrRuCzl4Vi_TdL1N-103" value="&lt;font style=&quot;font-size: 12px;&quot;&gt;Deployment：&lt;font style=&quot;font-size: 12px;&quot;&gt;authunicorn&lt;/font&gt;&lt;br&gt;服务：&lt;span style=&quot;border-color: var(--border-color);&quot;&gt;&lt;font style=&quot;border-color: var(--border-color); font-size: 12px;&quot;&gt;authunicorn&lt;/font&gt;&lt;/span&gt;&lt;br&gt;服务端口：&lt;font style=&quot;font-size: 12px;&quot;&gt;3000:30005&lt;/font&gt;&lt;br&gt;监控端口：&lt;font style=&quot;font-size: 12px;&quot;&gt;8083:30083&lt;/font&gt;&lt;/font&gt;" style="rounded=1;whiteSpace=wrap;html=1;fillColor=#ffff88;strokeColor=#36393d;" parent="1" vertex="1">
          <mxGeometry x="30.00000000000003" y="250" width="170" height="70" as="geometry" />
        </mxCell>
        <mxCell id="ooFxtrRuCzl4Vi_TdL1N-106" value="&lt;font style=&quot;&quot;&gt;Deployment：&lt;font style=&quot;font-size: 12px;&quot;&gt;graphqlunicorn&lt;/font&gt;&lt;br&gt;服务：&lt;span style=&quot;font-size: 12px; border-color: var(--border-color);&quot;&gt;&lt;font style=&quot;border-color: var(--border-color); font-size: 12px;&quot;&gt;graphqlunicorn&lt;/font&gt;&lt;/span&gt;&lt;br&gt;服务端口：3000:30004&lt;br&gt;监控端口：9394:30094&lt;br&gt;8083:30085&lt;br&gt;&lt;/font&gt;" style="rounded=1;whiteSpace=wrap;html=1;fillColor=#ffff88;strokeColor=#36393d;" parent="1" vertex="1">
          <mxGeometry x="390.92" y="250" width="170" height="70" as="geometry" />
        </mxCell>
        <mxCell id="ooFxtrRuCzl4Vi_TdL1N-107" value="&lt;font style=&quot;font-size: 12px;&quot;&gt;Deployment：&lt;font style=&quot;font-size: 12px;&quot;&gt;webunicorn&lt;/font&gt;&lt;br&gt;服务：&lt;span style=&quot;border-color: var(--border-color);&quot;&gt;&lt;font style=&quot;border-color: var(--border-color); font-size: 12px;&quot;&gt;webunicorn&lt;/font&gt;&lt;/span&gt;&lt;br&gt;服务端口：3000:30003&lt;br&gt;监控端口：8083:30883&lt;/font&gt;" style="rounded=1;whiteSpace=wrap;html=1;fillColor=#ffff88;strokeColor=#36393d;" parent="1" vertex="1">
          <mxGeometry x="30" y="330" width="170" height="70" as="geometry" />
        </mxCell>
        <mxCell id="ooFxtrRuCzl4Vi_TdL1N-108" value="&lt;font style=&quot;font-size: 12px;&quot;&gt;Deployment：&lt;font style=&quot;font-size: 12px;&quot;&gt;giteecron&lt;/font&gt;&lt;br&gt;服务：crontab&lt;br&gt;服务端口：无&lt;br&gt;监控端口：无&lt;/font&gt;" style="rounded=1;whiteSpace=wrap;html=1;fillColor=#ffff88;strokeColor=#36393d;" parent="1" vertex="1">
          <mxGeometry x="217.91999999999996" y="330" width="170" height="70" as="geometry" />
        </mxCell>
        <mxCell id="ooFxtrRuCzl4Vi_TdL1N-109" value="&lt;font style=&quot;font-size: 12px;&quot;&gt;Deployment：&lt;font style=&quot;font-size: 12px;&quot;&gt;sidekiq&lt;/font&gt;&lt;br&gt;服务：sidekiq&lt;br&gt;服务端口：无&lt;br&gt;监控端口：8082:30006&lt;/font&gt;" style="rounded=1;whiteSpace=wrap;html=1;fillColor=#ffff88;strokeColor=#36393d;" parent="1" vertex="1">
          <mxGeometry x="390.91999999999996" y="330" width="170" height="70" as="geometry" />
        </mxCell>
        <mxCell id="ooFxtrRuCzl4Vi_TdL1N-112" value="&lt;div style=&quot;color: rgb(212, 212, 212); background-color: rgb(30, 30, 30); font-family: Consolas, &amp;quot;Courier New&amp;quot;, monospace; font-size: 17.6px; line-height: 23px;&quot;&gt;node标签:giteeFrontend&lt;/div&gt;" style="text;html=1;strokeColor=none;fillColor=none;align=center;verticalAlign=middle;whiteSpace=wrap;rounded=0;fontSize=12;fontFamily=Helvetica;fontColor=default;" parent="1" vertex="1">
          <mxGeometry x="260" y="180" width="250" height="30" as="geometry" />
        </mxCell>
        <mxCell id="ooFxtrRuCzl4Vi_TdL1N-113" value="&lt;font style=&quot;font-size: 12px;&quot;&gt;Deployment：&lt;font style=&quot;font-size: 12px;&quot;&gt;community-web&lt;/font&gt;&lt;br&gt;服务：community-web&lt;br&gt;服务端口：3000:30300&lt;br&gt;监控端口：无&lt;/font&gt;" style="rounded=1;whiteSpace=wrap;html=1;fillColor=#ffff88;strokeColor=#36393d;" parent="1" vertex="1">
          <mxGeometry x="40" y="425" width="180" height="55" as="geometry" />
        </mxCell>
        <mxCell id="ooFxtrRuCzl4Vi_TdL1N-114" value="&lt;font style=&quot;font-size: 12px;&quot;&gt;Deployment：ent-web&lt;br&gt;服务：ent-web&lt;br&gt;服务端口：80:30082&lt;br&gt;监控端口：无&lt;/font&gt;" style="rounded=1;whiteSpace=wrap;html=1;fillColor=#ffff88;strokeColor=#36393d;" parent="1" vertex="1">
          <mxGeometry x="227.92000000000002" y="425" width="150" height="55" as="geometry" />
        </mxCell>
        <mxCell id="ooFxtrRuCzl4Vi_TdL1N-115" value="&lt;div style=&quot;color: rgb(212, 212, 212); background-color: rgb(30, 30, 30); font-family: Consolas, &amp;quot;Courier New&amp;quot;, monospace; font-size: 17.6px; line-height: 23px;&quot;&gt;&lt;div style=&quot;line-height: 23px;&quot;&gt;node标签:giteeRuby&lt;/div&gt;&lt;/div&gt;" style="text;html=1;strokeColor=none;fillColor=none;align=center;verticalAlign=middle;whiteSpace=wrap;rounded=0;fontSize=12;fontFamily=Helvetica;fontColor=default;" parent="1" vertex="1">
          <mxGeometry x="14" y="220" width="186" height="30" as="geometry" />
        </mxCell>
        <mxCell id="ooFxtrRuCzl4Vi_TdL1N-120" value="&lt;font style=&quot;font-size: 12px;&quot;&gt;Deployment：gitee-foruda&lt;br&gt;服务：gitee-foruda&lt;br&gt;服务端口：80:30082&lt;br&gt;监控端口：22000:30220&lt;/font&gt;" style="rounded=1;whiteSpace=wrap;html=1;fillColor=#ffff88;strokeColor=#36393d;" parent="1" vertex="1">
          <mxGeometry x="380.00000000000006" y="425" width="150" height="55" as="geometry" />
        </mxCell>
        <mxCell id="ooFxtrRuCzl4Vi_TdL1N-121" value="&lt;font style=&quot;font-size: 12px;&quot;&gt;Deployment：gitee-foruda-admin&lt;br&gt;服务：gitee-foruda-admin&lt;br&gt;服务端口：80:30080&lt;br&gt;监控端口：无&lt;/font&gt;" style="rounded=1;whiteSpace=wrap;html=1;fillColor=#ffff88;strokeColor=#36393d;" parent="1" vertex="1">
          <mxGeometry x="37.920000000000016" y="487.5" width="190" height="62.5" as="geometry" />
        </mxCell>
        <mxCell id="ooFxtrRuCzl4Vi_TdL1N-123" value="&lt;font style=&quot;font-size: 12px;&quot;&gt;Deployment：gitee-praefect&lt;br&gt;服务：gitee-praefect&lt;br&gt;服务端口：9999:30999&amp;nbsp;9999:31999&lt;br&gt;监控端口：9236:30236&lt;/font&gt;" style="rounded=1;whiteSpace=wrap;html=1;fillColor=#ffff88;strokeColor=#36393d;" parent="1" vertex="1">
          <mxGeometry x="510" y="40" width="230.85" height="60" as="geometry" />
        </mxCell>
        <mxCell id="ooFxtrRuCzl4Vi_TdL1N-125" value="&lt;div style=&quot;color: rgb(212, 212, 212); background-color: rgb(30, 30, 30); font-family: Consolas, &amp;quot;Courier New&amp;quot;, monospace; font-size: 17.6px; line-height: 23px;&quot;&gt;&lt;div style=&quot;line-height: 23px;&quot;&gt;node标签:giteePubcomm&lt;/div&gt;&lt;/div&gt;" style="text;html=1;strokeColor=none;fillColor=none;align=center;verticalAlign=middle;whiteSpace=wrap;rounded=0;fontSize=12;fontFamily=Helvetica;fontColor=default;" parent="1" vertex="1">
          <mxGeometry x="610" y="180" width="210" height="30" as="geometry" />
        </mxCell>
        <mxCell id="ooFxtrRuCzl4Vi_TdL1N-129" value="&lt;span style=&quot;&quot;&gt;Deployment：http-pilot&lt;br&gt;服务：http-pilot&lt;br&gt;服务端口：6400:30640&lt;br&gt;监控端口：6400:30640&lt;br&gt;&lt;/span&gt;" style="rounded=1;whiteSpace=wrap;html=1;fillColor=#ffff88;strokeColor=#36393d;" parent="1" vertex="1">
          <mxGeometry x="250" y="45" width="183.84" height="55" as="geometry" />
        </mxCell>
        <mxCell id="ooFxtrRuCzl4Vi_TdL1N-130" value="&lt;span style=&quot;&quot;&gt;Deployment：ssh-pilot&lt;br&gt;服务：ssh-pilot&lt;br&gt;服务端口：22:30022&lt;br&gt;监控端口：9236:30036&lt;br&gt;&lt;/span&gt;" style="rounded=1;whiteSpace=wrap;html=1;fillColor=#ffff88;strokeColor=#36393d;" parent="1" vertex="1">
          <mxGeometry x="56.160000000000025" y="115" width="183.84" height="55" as="geometry" />
        </mxCell>
        <mxCell id="ooFxtrRuCzl4Vi_TdL1N-131" value="&lt;span style=&quot;&quot;&gt;Deployment：svnsbz&lt;br&gt;服务：svnsbz&lt;br&gt;服务端口：3690:30690&lt;br&gt;监控端口：无&lt;br&gt;&lt;/span&gt;" style="rounded=1;whiteSpace=wrap;html=1;fillColor=#ffff88;strokeColor=#36393d;" parent="1" vertex="1">
          <mxGeometry x="250" y="115" width="183.84" height="55" as="geometry" />
        </mxCell>
        <mxCell id="ooFxtrRuCzl4Vi_TdL1N-134" value="&lt;font style=&quot;font-size: 12px;&quot;&gt;Deployment：gitee-rolling-box&lt;br&gt;服务：gitee-rolling-box&lt;br&gt;服务端口：18082&lt;br&gt;监控端口：无&lt;/font&gt;" style="rounded=1;whiteSpace=wrap;html=1;fillColor=#ffff88;strokeColor=#36393d;" parent="1" vertex="1">
          <mxGeometry x="230.08000000000004" y="487.5" width="190" height="62.5" as="geometry" />
        </mxCell>
        <mxCell id="ooFxtrRuCzl4Vi_TdL1N-136" value="&lt;font style=&quot;font-size: 12px;&quot;&gt;Deployment：gitee-ums-admin&lt;br&gt;服务：gitee-ums-admin&lt;br&gt;服务端口：8088:30088&lt;br&gt;监控端口：无&lt;/font&gt;" style="rounded=1;whiteSpace=wrap;html=1;fillColor=#ffff88;strokeColor=#36393d;" parent="1" vertex="1">
          <mxGeometry x="540.43" y="423.28" width="189.57" height="58.43" as="geometry" />
        </mxCell>
        <mxCell id="ooFxtrRuCzl4Vi_TdL1N-137" value="&lt;font style=&quot;font-size: 12px;&quot;&gt;Statefulsets：redis-cluster&lt;br&gt;服务：redis-cluster&lt;br&gt;服务端口：6379&lt;br&gt;监控端口：无&lt;/font&gt;" style="rounded=1;whiteSpace=wrap;html=1;fillColor=#ffff88;strokeColor=#36393d;" parent="1" vertex="1">
          <mxGeometry x="1150" y="293.75" width="190" height="62.5" as="geometry" />
        </mxCell>
        <mxCell id="ooFxtrRuCzl4Vi_TdL1N-141" value="&lt;font style=&quot;font-size: 12px;&quot;&gt;Deployment：gitee-ums-consumer&lt;br&gt;服务：gitee-ums-consumer&lt;br&gt;服务端口：8090&lt;br&gt;监控端口：无&lt;/font&gt;" style="rounded=1;whiteSpace=wrap;html=1;fillColor=#ffff88;strokeColor=#36393d;" parent="1" vertex="1">
          <mxGeometry x="440" y="497.5" width="190" height="62.5" as="geometry" />
        </mxCell>
        <mxCell id="YK_ei5zXLfUswVGtYnYI-1" value="&lt;div style=&quot;color: rgb(212, 212, 212); background-color: rgb(30, 30, 30); font-family: Consolas, &amp;quot;Courier New&amp;quot;, monospace; font-size: 17.6px; line-height: 23px;&quot;&gt;&lt;div style=&quot;line-height: 23px;&quot;&gt;node标签:无&lt;/div&gt;&lt;/div&gt;" style="text;html=1;strokeColor=none;fillColor=none;align=center;verticalAlign=middle;whiteSpace=wrap;rounded=0;fontSize=12;fontFamily=Helvetica;fontColor=default;" vertex="1" parent="1">
          <mxGeometry x="1370" y="437.5" width="200" height="30" as="geometry" />
        </mxCell>
        <mxCell id="YK_ei5zXLfUswVGtYnYI-5" value="" style="rounded=0;whiteSpace=wrap;html=1;strokeColor=#36393d;align=center;verticalAlign=middle;fontFamily=Helvetica;fontSize=12;fillColor=#f9f7ed;" vertex="1" parent="1">
          <mxGeometry x="597.51" y="220" width="272.49" height="180" as="geometry" />
        </mxCell>
        <mxCell id="YK_ei5zXLfUswVGtYnYI-6" value="&lt;div style=&quot;color: rgb(212, 212, 212); background-color: rgb(30, 30, 30); font-family: Consolas, &amp;quot;Courier New&amp;quot;, monospace; font-size: 17.6px; line-height: 23px;&quot;&gt;&lt;div style=&quot;line-height: 23px;&quot;&gt;node标签:无&lt;/div&gt;&lt;/div&gt;" style="text;html=1;strokeColor=none;fillColor=none;align=center;verticalAlign=middle;whiteSpace=wrap;rounded=0;fontSize=12;fontFamily=Helvetica;fontColor=default;" vertex="1" parent="1">
          <mxGeometry x="720" y="370" width="200" height="30" as="geometry" />
        </mxCell>
        <mxCell id="YK_ei5zXLfUswVGtYnYI-7" value="&lt;font style=&quot;&quot;&gt;Deployment：gitee-lfsoss&lt;br&gt;服务：&lt;span style=&quot;font-size: 12px; border-color: var(--border-color);&quot;&gt;&lt;font style=&quot;border-color: var(--border-color); font-size: 12px;&quot;&gt;gitee-lfsoss&lt;/font&gt;&lt;/span&gt;&lt;br&gt;服务端口：8002:30802&lt;br&gt;监控端口：无&lt;br&gt;&lt;/font&gt;" style="rounded=1;whiteSpace=wrap;html=1;fillColor=#ffff88;strokeColor=#36393d;" vertex="1" parent="1">
          <mxGeometry x="603.6600000000001" y="223.75" width="170" height="70" as="geometry" />
        </mxCell>
      </root>
    </mxGraphModel>
  </diagram>
</mxfile>
